<mxfile host="app.diagrams.net" modified="2023-11-15T11:35:35.593Z" agent="Mozilla/5.0 (Windows NT 10.0; Win64; x64) AppleWebKit/537.36 (KHTML, like Gecko) Chrome/119.0.0.0 Safari/537.36" etag="jRrhWupAgGMP6_nIS95e" version="22.1.1" type="device">
  <diagram name="1 oldal" id="cSPhZj3WtQrHoU1kGywx">
    <mxGraphModel dx="6176" dy="1580" grid="1" gridSize="10" guides="1" tooltips="1" connect="1" arrows="1" fold="1" page="1" pageScale="1" pageWidth="827" pageHeight="1169" math="0" shadow="0">
      <root>
        <mxCell id="0" />
        <mxCell id="1" parent="0" />
        <mxCell id="N19XUBrRZEHlFnqMHqqQ-40" style="edgeStyle=orthogonalEdgeStyle;rounded=0;orthogonalLoop=1;jettySize=auto;html=1;exitX=0.5;exitY=1;exitDx=0;exitDy=0;entryX=0;entryY=0.5;entryDx=0;entryDy=0;endArrow=none;endFill=0;" parent="1" source="N19XUBrRZEHlFnqMHqqQ-41" target="N19XUBrRZEHlFnqMHqqQ-36" edge="1">
          <mxGeometry relative="1" as="geometry">
            <mxPoint x="-1542" y="599" as="sourcePoint" />
          </mxGeometry>
        </mxCell>
        <mxCell id="N19XUBrRZEHlFnqMHqqQ-223" style="rounded=0;orthogonalLoop=1;jettySize=auto;html=1;exitX=0.5;exitY=0;exitDx=0;exitDy=0;entryX=0.5;entryY=1;entryDx=0;entryDy=0;endArrow=none;endFill=0;" parent="1" source="N19XUBrRZEHlFnqMHqqQ-235" target="N19XUBrRZEHlFnqMHqqQ-222" edge="1">
          <mxGeometry relative="1" as="geometry">
            <mxPoint x="-2452" y="430" as="sourcePoint" />
          </mxGeometry>
        </mxCell>
        <mxCell id="N19XUBrRZEHlFnqMHqqQ-12" style="rounded=0;orthogonalLoop=1;jettySize=auto;html=1;exitX=0.5;exitY=0;exitDx=0;exitDy=0;entryX=0.5;entryY=1;entryDx=0;entryDy=0;strokeWidth=1;endArrow=none;endFill=0;" parent="1" source="N19XUBrRZEHlFnqMHqqQ-8" edge="1">
          <mxGeometry relative="1" as="geometry">
            <mxPoint x="-2452" y="490" as="targetPoint" />
          </mxGeometry>
        </mxCell>
        <mxCell id="N19XUBrRZEHlFnqMHqqQ-8" value="&lt;u&gt;Card ID&lt;/u&gt;" style="rhombus;whiteSpace=wrap;html=1;" parent="1" vertex="1">
          <mxGeometry x="-2610" y="545" width="80" height="70" as="geometry" />
        </mxCell>
        <mxCell id="N19XUBrRZEHlFnqMHqqQ-10" value="Written name" style="ellipse;whiteSpace=wrap;html=1;" parent="1" vertex="1">
          <mxGeometry x="-2510" y="550" width="116" height="60" as="geometry" />
        </mxCell>
        <mxCell id="N19XUBrRZEHlFnqMHqqQ-13" style="rounded=0;orthogonalLoop=1;jettySize=auto;html=1;exitX=0.5;exitY=0;exitDx=0;exitDy=0;entryX=0.5;entryY=1;entryDx=0;entryDy=0;strokeWidth=1;endArrow=none;endFill=0;" parent="1" source="N19XUBrRZEHlFnqMHqqQ-10" edge="1">
          <mxGeometry relative="1" as="geometry">
            <mxPoint x="-2510" y="550" as="sourcePoint" />
            <mxPoint x="-2452" y="490" as="targetPoint" />
          </mxGeometry>
        </mxCell>
        <mxCell id="N19XUBrRZEHlFnqMHqqQ-197" style="edgeStyle=orthogonalEdgeStyle;rounded=0;orthogonalLoop=1;jettySize=auto;html=1;exitX=0.5;exitY=1;exitDx=0;exitDy=0;entryX=0.5;entryY=1;entryDx=0;entryDy=0;dashed=1;startArrow=classic;startFill=1;endArrow=none;endFill=0;" parent="1" source="N19XUBrRZEHlFnqMHqqQ-15" target="N19XUBrRZEHlFnqMHqqQ-49" edge="1">
          <mxGeometry relative="1" as="geometry">
            <mxPoint x="-2170" y="614" as="sourcePoint" />
            <mxPoint x="-1200.0000000000005" y="619" as="targetPoint" />
            <Array as="points">
              <mxPoint x="-2170" y="614" />
              <mxPoint x="-2170" y="870" />
              <mxPoint x="-1400" y="870" />
            </Array>
          </mxGeometry>
        </mxCell>
        <mxCell id="N19XUBrRZEHlFnqMHqqQ-15" value="&lt;u&gt;Librarian ID&lt;/u&gt;" style="rhombus;whiteSpace=wrap;html=1;" parent="1" vertex="1">
          <mxGeometry x="-2220" y="544" width="80" height="70" as="geometry" />
        </mxCell>
        <mxCell id="N19XUBrRZEHlFnqMHqqQ-16" value="LName" style="ellipse;whiteSpace=wrap;html=1;" parent="1" vertex="1">
          <mxGeometry x="-2080" y="549" width="116" height="60" as="geometry" />
        </mxCell>
        <mxCell id="N19XUBrRZEHlFnqMHqqQ-19" value="" style="group" parent="1" vertex="1" connectable="0">
          <mxGeometry x="-2370" y="545" width="80" height="70" as="geometry" />
        </mxCell>
        <mxCell id="N19XUBrRZEHlFnqMHqqQ-17" value="Librarian ID" style="rhombus;whiteSpace=wrap;html=1;" parent="N19XUBrRZEHlFnqMHqqQ-19" vertex="1">
          <mxGeometry width="80" height="70" as="geometry" />
        </mxCell>
        <mxCell id="N19XUBrRZEHlFnqMHqqQ-18" value="" style="endArrow=none;dashed=1;html=1;rounded=0;exitX=0.1;exitY=0.599;exitDx=0;exitDy=0;exitPerimeter=0;entryX=0.89;entryY=0.589;entryDx=0;entryDy=0;entryPerimeter=0;" parent="N19XUBrRZEHlFnqMHqqQ-19" source="N19XUBrRZEHlFnqMHqqQ-17" target="N19XUBrRZEHlFnqMHqqQ-17" edge="1">
          <mxGeometry width="50" height="50" relative="1" as="geometry">
            <mxPoint x="50" y="85" as="sourcePoint" />
            <mxPoint x="100" y="35" as="targetPoint" />
          </mxGeometry>
        </mxCell>
        <mxCell id="N19XUBrRZEHlFnqMHqqQ-20" style="rounded=0;orthogonalLoop=1;jettySize=auto;html=1;entryX=0.5;entryY=1;entryDx=0;entryDy=0;strokeWidth=1;endArrow=none;endFill=0;" parent="1" source="N19XUBrRZEHlFnqMHqqQ-10" edge="1">
          <mxGeometry relative="1" as="geometry">
            <mxPoint x="-2560" y="555" as="sourcePoint" />
            <mxPoint x="-2452" y="490" as="targetPoint" />
          </mxGeometry>
        </mxCell>
        <mxCell id="N19XUBrRZEHlFnqMHqqQ-21" style="rounded=0;orthogonalLoop=1;jettySize=auto;html=1;entryX=0.5;entryY=1;entryDx=0;entryDy=0;strokeWidth=1;endArrow=none;endFill=0;exitX=0.5;exitY=0;exitDx=0;exitDy=0;" parent="1" source="N19XUBrRZEHlFnqMHqqQ-17" edge="1">
          <mxGeometry relative="1" as="geometry">
            <mxPoint x="-2329.9966666666664" y="534.9966666666667" as="sourcePoint" />
            <mxPoint x="-2452" y="490" as="targetPoint" />
          </mxGeometry>
        </mxCell>
        <mxCell id="N19XUBrRZEHlFnqMHqqQ-22" value="" style="rounded=0;whiteSpace=wrap;html=1;rotation=90;" parent="1" vertex="1">
          <mxGeometry x="-2478" y="659" width="52" height="31" as="geometry" />
        </mxCell>
        <mxCell id="N19XUBrRZEHlFnqMHqqQ-23" value="" style="endArrow=none;html=1;rounded=0;entryX=0.5;entryY=1;entryDx=0;entryDy=0;exitX=0;exitY=0.5;exitDx=0;exitDy=0;" parent="1" source="N19XUBrRZEHlFnqMHqqQ-22" target="N19XUBrRZEHlFnqMHqqQ-10" edge="1">
          <mxGeometry width="50" height="50" relative="1" as="geometry">
            <mxPoint x="-2340" y="700" as="sourcePoint" />
            <mxPoint x="-2290" y="650" as="targetPoint" />
          </mxGeometry>
        </mxCell>
        <mxCell id="N19XUBrRZEHlFnqMHqqQ-24" value="LLast_name" style="ellipse;whiteSpace=wrap;html=1;" parent="1" vertex="1">
          <mxGeometry x="-2012" y="669" width="116" height="60" as="geometry" />
        </mxCell>
        <mxCell id="N19XUBrRZEHlFnqMHqqQ-25" value="LFirst_name" style="ellipse;whiteSpace=wrap;html=1;" parent="1" vertex="1">
          <mxGeometry x="-2150" y="669" width="116" height="60" as="geometry" />
        </mxCell>
        <mxCell id="N19XUBrRZEHlFnqMHqqQ-26" value="" style="endArrow=none;html=1;rounded=0;entryX=0.5;entryY=1;entryDx=0;entryDy=0;exitX=0.5;exitY=0;exitDx=0;exitDy=0;" parent="1" source="N19XUBrRZEHlFnqMHqqQ-25" target="N19XUBrRZEHlFnqMHqqQ-16" edge="1">
          <mxGeometry width="50" height="50" relative="1" as="geometry">
            <mxPoint x="-1970" y="889" as="sourcePoint" />
            <mxPoint x="-1920" y="839" as="targetPoint" />
          </mxGeometry>
        </mxCell>
        <mxCell id="N19XUBrRZEHlFnqMHqqQ-27" value="" style="endArrow=none;html=1;rounded=0;entryX=0.5;entryY=1;entryDx=0;entryDy=0;exitX=0.5;exitY=0;exitDx=0;exitDy=0;" parent="1" source="N19XUBrRZEHlFnqMHqqQ-24" target="N19XUBrRZEHlFnqMHqqQ-16" edge="1">
          <mxGeometry width="50" height="50" relative="1" as="geometry">
            <mxPoint x="-1970" y="889" as="sourcePoint" />
            <mxPoint x="-1920" y="839" as="targetPoint" />
          </mxGeometry>
        </mxCell>
        <mxCell id="N19XUBrRZEHlFnqMHqqQ-29" value="LDate of birth" style="ellipse;whiteSpace=wrap;html=1;" parent="1" vertex="1">
          <mxGeometry x="-1900" y="544" width="116" height="60" as="geometry" />
        </mxCell>
        <mxCell id="N19XUBrRZEHlFnqMHqqQ-31" value="LAge" style="ellipse;whiteSpace=wrap;html=1;" parent="1" vertex="1">
          <mxGeometry x="-1748" y="549" width="116" height="60" as="geometry" />
        </mxCell>
        <mxCell id="N19XUBrRZEHlFnqMHqqQ-36" value="" style="rounded=0;whiteSpace=wrap;html=1;rotation=90;" parent="1" vertex="1">
          <mxGeometry x="-1568" y="659" width="52" height="31" as="geometry" />
        </mxCell>
        <mxCell id="N19XUBrRZEHlFnqMHqqQ-41" value="LPhone number" style="ellipse;shape=doubleEllipse;whiteSpace=wrap;html=1;" parent="1" vertex="1">
          <mxGeometry x="-1600" y="549" width="116" height="60" as="geometry" />
        </mxCell>
        <mxCell id="N19XUBrRZEHlFnqMHqqQ-224" style="rounded=0;orthogonalLoop=1;jettySize=auto;html=1;exitX=0.5;exitY=0;exitDx=0;exitDy=0;entryX=0.5;entryY=1;entryDx=0;entryDy=0;endArrow=none;endFill=0;" parent="1" target="N19XUBrRZEHlFnqMHqqQ-222" edge="1">
          <mxGeometry relative="1" as="geometry">
            <mxPoint x="-1842" y="430" as="sourcePoint" />
          </mxGeometry>
        </mxCell>
        <mxCell id="N19XUBrRZEHlFnqMHqqQ-226" style="rounded=0;orthogonalLoop=1;jettySize=auto;html=1;exitX=0.5;exitY=0;exitDx=0;exitDy=0;entryX=0.5;entryY=1;entryDx=0;entryDy=0;endArrow=none;endFill=0;" parent="1" target="N19XUBrRZEHlFnqMHqqQ-222" edge="1">
          <mxGeometry relative="1" as="geometry">
            <mxPoint x="-1174" y="430" as="sourcePoint" />
          </mxGeometry>
        </mxCell>
        <mxCell id="N19XUBrRZEHlFnqMHqqQ-44" style="rounded=0;orthogonalLoop=1;jettySize=auto;html=1;exitX=0.5;exitY=0;exitDx=0;exitDy=0;entryX=0.5;entryY=1;entryDx=0;entryDy=0;strokeWidth=1;endArrow=none;endFill=0;" parent="1" source="N19XUBrRZEHlFnqMHqqQ-45" edge="1">
          <mxGeometry relative="1" as="geometry">
            <mxPoint x="-1174" y="490" as="targetPoint" />
          </mxGeometry>
        </mxCell>
        <mxCell id="N19XUBrRZEHlFnqMHqqQ-45" value="&lt;u&gt;Book ID&lt;/u&gt;" style="rhombus;whiteSpace=wrap;html=1;" parent="1" vertex="1">
          <mxGeometry x="-1340" y="549" width="80" height="70" as="geometry" />
        </mxCell>
        <mxCell id="N19XUBrRZEHlFnqMHqqQ-46" value="Date" style="ellipse;whiteSpace=wrap;html=1;" parent="1" vertex="1">
          <mxGeometry x="-1230" y="549" width="116" height="60" as="geometry" />
        </mxCell>
        <mxCell id="N19XUBrRZEHlFnqMHqqQ-47" style="rounded=0;orthogonalLoop=1;jettySize=auto;html=1;exitX=0.5;exitY=0;exitDx=0;exitDy=0;entryX=0.5;entryY=1;entryDx=0;entryDy=0;strokeWidth=1;endArrow=none;endFill=0;" parent="1" source="N19XUBrRZEHlFnqMHqqQ-46" edge="1">
          <mxGeometry relative="1" as="geometry">
            <mxPoint x="-1195" y="560" as="sourcePoint" />
            <mxPoint x="-1174" y="490" as="targetPoint" />
          </mxGeometry>
        </mxCell>
        <mxCell id="N19XUBrRZEHlFnqMHqqQ-52" style="rounded=0;orthogonalLoop=1;jettySize=auto;html=1;entryX=0.5;entryY=1;entryDx=0;entryDy=0;strokeWidth=1;endArrow=none;endFill=0;exitX=0.5;exitY=0;exitDx=0;exitDy=0;" parent="1" source="N19XUBrRZEHlFnqMHqqQ-49" edge="1">
          <mxGeometry relative="1" as="geometry">
            <mxPoint x="-1014.9966666666664" y="544.9966666666667" as="sourcePoint" />
            <mxPoint x="-1174" y="490" as="targetPoint" />
          </mxGeometry>
        </mxCell>
        <mxCell id="N19XUBrRZEHlFnqMHqqQ-53" value="" style="rounded=0;whiteSpace=wrap;html=1;rotation=90;" parent="1" vertex="1">
          <mxGeometry x="-1198" y="659" width="52" height="31" as="geometry" />
        </mxCell>
        <mxCell id="N19XUBrRZEHlFnqMHqqQ-54" value="" style="endArrow=none;html=1;rounded=0;entryX=0.5;entryY=1;entryDx=0;entryDy=0;exitX=0;exitY=0.5;exitDx=0;exitDy=0;" parent="1" source="N19XUBrRZEHlFnqMHqqQ-53" target="N19XUBrRZEHlFnqMHqqQ-46" edge="1">
          <mxGeometry width="50" height="50" relative="1" as="geometry">
            <mxPoint x="-1045" y="710" as="sourcePoint" />
            <mxPoint x="-995" y="660" as="targetPoint" />
          </mxGeometry>
        </mxCell>
        <mxCell id="N19XUBrRZEHlFnqMHqqQ-59" value="" style="endArrow=none;html=1;rounded=0;entryX=0.5;entryY=1;entryDx=0;entryDy=0;exitX=0.5;exitY=0;exitDx=0;exitDy=0;" parent="1" source="N19XUBrRZEHlFnqMHqqQ-57" edge="1">
          <mxGeometry width="50" height="50" relative="1" as="geometry">
            <mxPoint x="-1035" y="710" as="sourcePoint" />
            <mxPoint x="-1174" y="490" as="targetPoint" />
          </mxGeometry>
        </mxCell>
        <mxCell id="N19XUBrRZEHlFnqMHqqQ-60" value="Lending/Taing back" style="ellipse;whiteSpace=wrap;html=1;" parent="1" vertex="1">
          <mxGeometry x="-1090" y="549" width="116" height="60" as="geometry" />
        </mxCell>
        <mxCell id="N19XUBrRZEHlFnqMHqqQ-61" value="" style="rounded=0;whiteSpace=wrap;html=1;rotation=90;" parent="1" vertex="1">
          <mxGeometry x="-1058" y="659" width="52" height="31" as="geometry" />
        </mxCell>
        <mxCell id="N19XUBrRZEHlFnqMHqqQ-62" value="" style="endArrow=none;html=1;rounded=0;entryX=0.5;entryY=1;entryDx=0;entryDy=0;exitX=0;exitY=0.5;exitDx=0;exitDy=0;" parent="1" source="N19XUBrRZEHlFnqMHqqQ-61" target="N19XUBrRZEHlFnqMHqqQ-60" edge="1">
          <mxGeometry width="50" height="50" relative="1" as="geometry">
            <mxPoint x="-895" y="710" as="sourcePoint" />
            <mxPoint x="-845" y="660" as="targetPoint" />
          </mxGeometry>
        </mxCell>
        <mxCell id="N19XUBrRZEHlFnqMHqqQ-196" style="edgeStyle=orthogonalEdgeStyle;rounded=0;orthogonalLoop=1;jettySize=auto;html=1;exitX=0.5;exitY=1;exitDx=0;exitDy=0;entryX=0.5;entryY=1;entryDx=0;entryDy=0;dashed=1;" parent="1" source="N19XUBrRZEHlFnqMHqqQ-57" target="N19XUBrRZEHlFnqMHqqQ-72" edge="1">
          <mxGeometry relative="1" as="geometry">
            <Array as="points">
              <mxPoint x="-905" y="870" />
              <mxPoint x="-800" y="870" />
              <mxPoint x="-800" y="619" />
            </Array>
          </mxGeometry>
        </mxCell>
        <mxCell id="N19XUBrRZEHlFnqMHqqQ-57" value="Borrower ID" style="rhombus;whiteSpace=wrap;html=1;" parent="1" vertex="1">
          <mxGeometry x="-945" y="549" width="80" height="70" as="geometry" />
        </mxCell>
        <mxCell id="N19XUBrRZEHlFnqMHqqQ-58" value="" style="endArrow=none;dashed=1;html=1;rounded=0;exitX=0.1;exitY=0.599;exitDx=0;exitDy=0;exitPerimeter=0;entryX=0.89;entryY=0.589;entryDx=0;entryDy=0;entryPerimeter=0;" parent="1" source="N19XUBrRZEHlFnqMHqqQ-57" target="N19XUBrRZEHlFnqMHqqQ-57" edge="1">
          <mxGeometry width="50" height="50" relative="1" as="geometry">
            <mxPoint x="-997" y="645" as="sourcePoint" />
            <mxPoint x="-947" y="595" as="targetPoint" />
          </mxGeometry>
        </mxCell>
        <mxCell id="N19XUBrRZEHlFnqMHqqQ-66" value="" style="endArrow=none;html=1;rounded=0;entryX=0.5;entryY=1;entryDx=0;entryDy=0;exitX=0.5;exitY=0;exitDx=0;exitDy=0;" parent="1" source="N19XUBrRZEHlFnqMHqqQ-60" edge="1">
          <mxGeometry width="50" height="50" relative="1" as="geometry">
            <mxPoint x="-1145" y="710" as="sourcePoint" />
            <mxPoint x="-1174" y="490" as="targetPoint" />
          </mxGeometry>
        </mxCell>
        <mxCell id="N19XUBrRZEHlFnqMHqqQ-67" value="" style="endArrow=none;html=1;rounded=0;entryX=0.5;entryY=1;entryDx=0;entryDy=0;exitX=0.5;exitY=0;exitDx=0;exitDy=0;" parent="1" source="N19XUBrRZEHlFnqMHqqQ-15" edge="1">
          <mxGeometry width="50" height="50" relative="1" as="geometry">
            <mxPoint x="-2110" y="829" as="sourcePoint" />
            <mxPoint x="-1842" y="490" as="targetPoint" />
          </mxGeometry>
        </mxCell>
        <mxCell id="N19XUBrRZEHlFnqMHqqQ-68" value="" style="endArrow=none;html=1;rounded=0;entryX=0.5;entryY=1;entryDx=0;entryDy=0;exitX=0.5;exitY=0;exitDx=0;exitDy=0;" parent="1" source="N19XUBrRZEHlFnqMHqqQ-16" edge="1">
          <mxGeometry width="50" height="50" relative="1" as="geometry">
            <mxPoint x="-2110" y="829" as="sourcePoint" />
            <mxPoint x="-1842" y="490" as="targetPoint" />
          </mxGeometry>
        </mxCell>
        <mxCell id="N19XUBrRZEHlFnqMHqqQ-69" value="" style="endArrow=none;html=1;rounded=0;entryX=0.5;entryY=1;entryDx=0;entryDy=0;exitX=0.5;exitY=0;exitDx=0;exitDy=0;" parent="1" source="N19XUBrRZEHlFnqMHqqQ-29" edge="1">
          <mxGeometry width="50" height="50" relative="1" as="geometry">
            <mxPoint x="-2110" y="829" as="sourcePoint" />
            <mxPoint x="-1842" y="490" as="targetPoint" />
          </mxGeometry>
        </mxCell>
        <mxCell id="N19XUBrRZEHlFnqMHqqQ-70" value="" style="endArrow=none;html=1;rounded=0;entryX=0.5;entryY=1;entryDx=0;entryDy=0;exitX=0.5;exitY=0;exitDx=0;exitDy=0;" parent="1" source="N19XUBrRZEHlFnqMHqqQ-41" edge="1">
          <mxGeometry width="50" height="50" relative="1" as="geometry">
            <mxPoint x="-2110" y="829" as="sourcePoint" />
            <mxPoint x="-1842" y="490" as="targetPoint" />
          </mxGeometry>
        </mxCell>
        <mxCell id="N19XUBrRZEHlFnqMHqqQ-71" style="edgeStyle=orthogonalEdgeStyle;rounded=0;orthogonalLoop=1;jettySize=auto;html=1;exitX=0.5;exitY=1;exitDx=0;exitDy=0;entryX=0;entryY=0.5;entryDx=0;entryDy=0;endArrow=none;endFill=0;" parent="1" source="N19XUBrRZEHlFnqMHqqQ-84" target="N19XUBrRZEHlFnqMHqqQ-83" edge="1">
          <mxGeometry relative="1" as="geometry">
            <mxPoint x="-122" y="610.5" as="sourcePoint" />
          </mxGeometry>
        </mxCell>
        <mxCell id="N19XUBrRZEHlFnqMHqqQ-198" style="edgeStyle=orthogonalEdgeStyle;rounded=0;orthogonalLoop=1;jettySize=auto;html=1;exitX=0.5;exitY=1;exitDx=0;exitDy=0;entryX=0.5;entryY=1;entryDx=0;entryDy=0;dashed=1;startArrow=classic;startFill=1;endArrow=none;endFill=0;" parent="1" source="N19XUBrRZEHlFnqMHqqQ-72" target="N19XUBrRZEHlFnqMHqqQ-127" edge="1">
          <mxGeometry relative="1" as="geometry">
            <Array as="points">
              <mxPoint x="-770" y="619" />
              <mxPoint x="-770" y="870" />
              <mxPoint x="550" y="870" />
            </Array>
          </mxGeometry>
        </mxCell>
        <mxCell id="N19XUBrRZEHlFnqMHqqQ-72" value="&lt;u&gt;Borrower ID&lt;/u&gt;" style="rhombus;whiteSpace=wrap;html=1;" parent="1" vertex="1">
          <mxGeometry x="-827" y="549" width="80" height="70" as="geometry" />
        </mxCell>
        <mxCell id="N19XUBrRZEHlFnqMHqqQ-73" value="BName" style="ellipse;whiteSpace=wrap;html=1;" parent="1" vertex="1">
          <mxGeometry x="-673" y="549" width="116" height="60" as="geometry" />
        </mxCell>
        <mxCell id="N19XUBrRZEHlFnqMHqqQ-74" value="BLast_name" style="ellipse;whiteSpace=wrap;html=1;" parent="1" vertex="1">
          <mxGeometry x="-610" y="669" width="116" height="60" as="geometry" />
        </mxCell>
        <mxCell id="N19XUBrRZEHlFnqMHqqQ-75" value="BFirst_name" style="ellipse;whiteSpace=wrap;html=1;" parent="1" vertex="1">
          <mxGeometry x="-747" y="669" width="116" height="60" as="geometry" />
        </mxCell>
        <mxCell id="N19XUBrRZEHlFnqMHqqQ-76" value="" style="endArrow=none;html=1;rounded=0;entryX=0.5;entryY=1;entryDx=0;entryDy=0;exitX=0.5;exitY=0;exitDx=0;exitDy=0;" parent="1" source="N19XUBrRZEHlFnqMHqqQ-75" target="N19XUBrRZEHlFnqMHqqQ-73" edge="1">
          <mxGeometry width="50" height="50" relative="1" as="geometry">
            <mxPoint x="-577" y="899.5" as="sourcePoint" />
            <mxPoint x="-527" y="849.5" as="targetPoint" />
          </mxGeometry>
        </mxCell>
        <mxCell id="N19XUBrRZEHlFnqMHqqQ-77" value="" style="endArrow=none;html=1;rounded=0;entryX=0.5;entryY=1;entryDx=0;entryDy=0;exitX=0.5;exitY=0;exitDx=0;exitDy=0;" parent="1" source="N19XUBrRZEHlFnqMHqqQ-74" target="N19XUBrRZEHlFnqMHqqQ-73" edge="1">
          <mxGeometry width="50" height="50" relative="1" as="geometry">
            <mxPoint x="-577" y="899.5" as="sourcePoint" />
            <mxPoint x="-527" y="849.5" as="targetPoint" />
          </mxGeometry>
        </mxCell>
        <mxCell id="N19XUBrRZEHlFnqMHqqQ-78" value="BDate of birth" style="ellipse;whiteSpace=wrap;html=1;" parent="1" vertex="1">
          <mxGeometry x="-490" y="549" width="116" height="60" as="geometry" />
        </mxCell>
        <mxCell id="N19XUBrRZEHlFnqMHqqQ-80" value="BAge" style="ellipse;whiteSpace=wrap;html=1;" parent="1" vertex="1">
          <mxGeometry x="-333" y="550" width="116" height="60" as="geometry" />
        </mxCell>
        <mxCell id="N19XUBrRZEHlFnqMHqqQ-83" value="" style="rounded=0;whiteSpace=wrap;html=1;rotation=90;" parent="1" vertex="1">
          <mxGeometry x="-148" y="659" width="52" height="31" as="geometry" />
        </mxCell>
        <mxCell id="N19XUBrRZEHlFnqMHqqQ-84" value="BPhone number" style="ellipse;shape=doubleEllipse;whiteSpace=wrap;html=1;" parent="1" vertex="1">
          <mxGeometry x="-180" y="550" width="116" height="60" as="geometry" />
        </mxCell>
        <mxCell id="N19XUBrRZEHlFnqMHqqQ-227" style="rounded=0;orthogonalLoop=1;jettySize=auto;html=1;exitX=0.5;exitY=0;exitDx=0;exitDy=0;entryX=0.5;entryY=1;entryDx=0;entryDy=0;endArrow=none;endFill=0;" parent="1" target="N19XUBrRZEHlFnqMHqqQ-222" edge="1">
          <mxGeometry relative="1" as="geometry">
            <mxPoint x="-222" y="430" as="sourcePoint" />
          </mxGeometry>
        </mxCell>
        <mxCell id="N19XUBrRZEHlFnqMHqqQ-86" value="" style="endArrow=none;html=1;rounded=0;entryX=0.5;entryY=1;entryDx=0;entryDy=0;exitX=0.5;exitY=0;exitDx=0;exitDy=0;" parent="1" source="N19XUBrRZEHlFnqMHqqQ-72" edge="1">
          <mxGeometry width="50" height="50" relative="1" as="geometry">
            <mxPoint x="-717" y="839.5" as="sourcePoint" />
            <mxPoint x="-222" y="490" as="targetPoint" />
          </mxGeometry>
        </mxCell>
        <mxCell id="N19XUBrRZEHlFnqMHqqQ-87" value="" style="endArrow=none;html=1;rounded=0;entryX=0.5;entryY=1;entryDx=0;entryDy=0;exitX=0.5;exitY=0;exitDx=0;exitDy=0;" parent="1" source="N19XUBrRZEHlFnqMHqqQ-73" edge="1">
          <mxGeometry width="50" height="50" relative="1" as="geometry">
            <mxPoint x="-717" y="839.5" as="sourcePoint" />
            <mxPoint x="-222" y="490" as="targetPoint" />
          </mxGeometry>
        </mxCell>
        <mxCell id="N19XUBrRZEHlFnqMHqqQ-88" value="" style="endArrow=none;html=1;rounded=0;entryX=0.5;entryY=1;entryDx=0;entryDy=0;exitX=0.5;exitY=0;exitDx=0;exitDy=0;" parent="1" source="N19XUBrRZEHlFnqMHqqQ-78" edge="1">
          <mxGeometry width="50" height="50" relative="1" as="geometry">
            <mxPoint x="-717" y="839.5" as="sourcePoint" />
            <mxPoint x="-222" y="490" as="targetPoint" />
          </mxGeometry>
        </mxCell>
        <mxCell id="N19XUBrRZEHlFnqMHqqQ-89" value="" style="endArrow=none;html=1;rounded=0;entryX=0.5;entryY=1;entryDx=0;entryDy=0;exitX=0.5;exitY=0;exitDx=0;exitDy=0;" parent="1" source="N19XUBrRZEHlFnqMHqqQ-84" edge="1">
          <mxGeometry width="50" height="50" relative="1" as="geometry">
            <mxPoint x="-717" y="839.5" as="sourcePoint" />
            <mxPoint x="-222" y="490" as="targetPoint" />
          </mxGeometry>
        </mxCell>
        <mxCell id="N19XUBrRZEHlFnqMHqqQ-90" value="BAddress" style="ellipse;whiteSpace=wrap;html=1;" parent="1" vertex="1">
          <mxGeometry x="221" y="550" width="116" height="60" as="geometry" />
        </mxCell>
        <mxCell id="N19XUBrRZEHlFnqMHqqQ-91" value="House number" style="ellipse;whiteSpace=wrap;html=1;" parent="1" vertex="1">
          <mxGeometry x="356" y="670" width="116" height="60" as="geometry" />
        </mxCell>
        <mxCell id="N19XUBrRZEHlFnqMHqqQ-92" value="City" style="ellipse;whiteSpace=wrap;html=1;" parent="1" vertex="1">
          <mxGeometry x="86" y="670" width="116" height="60" as="geometry" />
        </mxCell>
        <mxCell id="N19XUBrRZEHlFnqMHqqQ-93" value="" style="endArrow=none;html=1;rounded=0;entryX=0.5;entryY=1;entryDx=0;entryDy=0;exitX=0.5;exitY=0;exitDx=0;exitDy=0;" parent="1" source="N19XUBrRZEHlFnqMHqqQ-92" target="N19XUBrRZEHlFnqMHqqQ-90" edge="1">
          <mxGeometry width="50" height="50" relative="1" as="geometry">
            <mxPoint x="-301" y="901.5" as="sourcePoint" />
            <mxPoint x="-251" y="851.5" as="targetPoint" />
          </mxGeometry>
        </mxCell>
        <mxCell id="N19XUBrRZEHlFnqMHqqQ-94" value="" style="endArrow=none;html=1;rounded=0;entryX=0.5;entryY=1;entryDx=0;entryDy=0;exitX=0.5;exitY=0;exitDx=0;exitDy=0;" parent="1" source="N19XUBrRZEHlFnqMHqqQ-91" target="N19XUBrRZEHlFnqMHqqQ-90" edge="1">
          <mxGeometry width="50" height="50" relative="1" as="geometry">
            <mxPoint x="-301" y="901.5" as="sourcePoint" />
            <mxPoint x="-251" y="851.5" as="targetPoint" />
          </mxGeometry>
        </mxCell>
        <mxCell id="N19XUBrRZEHlFnqMHqqQ-95" value="Street" style="ellipse;whiteSpace=wrap;html=1;" parent="1" vertex="1">
          <mxGeometry x="221" y="670" width="116" height="60" as="geometry" />
        </mxCell>
        <mxCell id="N19XUBrRZEHlFnqMHqqQ-96" value="" style="endArrow=none;html=1;rounded=0;entryX=0.5;entryY=1;entryDx=0;entryDy=0;exitX=0.5;exitY=0;exitDx=0;exitDy=0;" parent="1" source="N19XUBrRZEHlFnqMHqqQ-95" target="N19XUBrRZEHlFnqMHqqQ-90" edge="1">
          <mxGeometry width="50" height="50" relative="1" as="geometry">
            <mxPoint x="-257" y="647" as="sourcePoint" />
            <mxPoint x="-207" y="597" as="targetPoint" />
          </mxGeometry>
        </mxCell>
        <mxCell id="N19XUBrRZEHlFnqMHqqQ-98" style="edgeStyle=orthogonalEdgeStyle;rounded=0;orthogonalLoop=1;jettySize=auto;html=1;exitX=0.5;exitY=1;exitDx=0;exitDy=0;endArrow=none;endFill=0;" parent="1" source="N19XUBrRZEHlFnqMHqqQ-99" target="N19XUBrRZEHlFnqMHqqQ-100" edge="1">
          <mxGeometry relative="1" as="geometry" />
        </mxCell>
        <mxCell id="N19XUBrRZEHlFnqMHqqQ-99" value="Email address" style="ellipse;whiteSpace=wrap;html=1;" parent="1" vertex="1">
          <mxGeometry x="-30" y="549" width="116" height="60" as="geometry" />
        </mxCell>
        <mxCell id="N19XUBrRZEHlFnqMHqqQ-100" value="" style="rounded=0;whiteSpace=wrap;html=1;rotation=90;" parent="1" vertex="1">
          <mxGeometry x="2" y="659" width="52" height="31" as="geometry" />
        </mxCell>
        <mxCell id="N19XUBrRZEHlFnqMHqqQ-101" value="" style="endArrow=none;html=1;rounded=0;entryX=0.5;entryY=1;entryDx=0;entryDy=0;exitX=0.5;exitY=0;exitDx=0;exitDy=0;" parent="1" source="N19XUBrRZEHlFnqMHqqQ-99" edge="1">
          <mxGeometry width="50" height="50" relative="1" as="geometry">
            <mxPoint x="103" y="820" as="sourcePoint" />
            <mxPoint x="-222" y="490" as="targetPoint" />
          </mxGeometry>
        </mxCell>
        <mxCell id="N19XUBrRZEHlFnqMHqqQ-102" value="" style="endArrow=none;html=1;rounded=0;entryX=0.5;entryY=1;entryDx=0;entryDy=0;exitX=0.5;exitY=0;exitDx=0;exitDy=0;" parent="1" source="N19XUBrRZEHlFnqMHqqQ-90" edge="1">
          <mxGeometry width="50" height="50" relative="1" as="geometry">
            <mxPoint x="13" y="500" as="sourcePoint" />
            <mxPoint x="-222" y="490" as="targetPoint" />
          </mxGeometry>
        </mxCell>
        <mxCell id="N19XUBrRZEHlFnqMHqqQ-228" style="rounded=0;orthogonalLoop=1;jettySize=auto;html=1;exitX=0.5;exitY=0;exitDx=0;exitDy=0;entryX=0.5;entryY=1;entryDx=0;entryDy=0;endArrow=none;endFill=0;" parent="1" target="N19XUBrRZEHlFnqMHqqQ-222" edge="1">
          <mxGeometry relative="1" as="geometry">
            <mxPoint x="738" y="430" as="sourcePoint" />
          </mxGeometry>
        </mxCell>
        <mxCell id="N19XUBrRZEHlFnqMHqqQ-124" value="Late fee" style="ellipse;whiteSpace=wrap;html=1;" parent="1" vertex="1">
          <mxGeometry x="610" y="549" width="116" height="60" as="geometry" />
        </mxCell>
        <mxCell id="N19XUBrRZEHlFnqMHqqQ-125" style="rounded=0;orthogonalLoop=1;jettySize=auto;html=1;exitX=0.5;exitY=0;exitDx=0;exitDy=0;entryX=0.5;entryY=1;entryDx=0;entryDy=0;strokeWidth=1;endArrow=none;endFill=0;" parent="1" source="N19XUBrRZEHlFnqMHqqQ-124" edge="1">
          <mxGeometry relative="1" as="geometry">
            <mxPoint x="640" y="571.5" as="sourcePoint" />
            <mxPoint x="738" y="490" as="targetPoint" />
          </mxGeometry>
        </mxCell>
        <mxCell id="N19XUBrRZEHlFnqMHqqQ-126" value="" style="group" parent="1" vertex="1" connectable="0">
          <mxGeometry x="510" y="549" width="80" height="70" as="geometry" />
        </mxCell>
        <mxCell id="N19XUBrRZEHlFnqMHqqQ-127" value="Borrower_ID" style="rhombus;whiteSpace=wrap;html=1;" parent="N19XUBrRZEHlFnqMHqqQ-126" vertex="1">
          <mxGeometry width="80" height="70" as="geometry" />
        </mxCell>
        <mxCell id="N19XUBrRZEHlFnqMHqqQ-128" value="" style="endArrow=none;dashed=1;html=1;rounded=0;exitX=0.1;exitY=0.599;exitDx=0;exitDy=0;exitPerimeter=0;entryX=0.89;entryY=0.589;entryDx=0;entryDy=0;entryPerimeter=0;" parent="N19XUBrRZEHlFnqMHqqQ-126" source="N19XUBrRZEHlFnqMHqqQ-127" target="N19XUBrRZEHlFnqMHqqQ-127" edge="1">
          <mxGeometry width="50" height="50" relative="1" as="geometry">
            <mxPoint x="50" y="85" as="sourcePoint" />
            <mxPoint x="100" y="35" as="targetPoint" />
          </mxGeometry>
        </mxCell>
        <mxCell id="N19XUBrRZEHlFnqMHqqQ-129" style="rounded=0;orthogonalLoop=1;jettySize=auto;html=1;entryX=0.5;entryY=1;entryDx=0;entryDy=0;strokeWidth=1;endArrow=none;endFill=0;exitX=0.5;exitY=0;exitDx=0;exitDy=0;" parent="1" source="N19XUBrRZEHlFnqMHqqQ-127" edge="1">
          <mxGeometry relative="1" as="geometry">
            <mxPoint x="820.0033333333336" y="556.4966666666667" as="sourcePoint" />
            <mxPoint x="738" y="490" as="targetPoint" />
          </mxGeometry>
        </mxCell>
        <mxCell id="N19XUBrRZEHlFnqMHqqQ-130" value="" style="rounded=0;whiteSpace=wrap;html=1;rotation=90;" parent="1" vertex="1">
          <mxGeometry x="642" y="659" width="52" height="31" as="geometry" />
        </mxCell>
        <mxCell id="N19XUBrRZEHlFnqMHqqQ-131" value="" style="endArrow=none;html=1;rounded=0;entryX=0.5;entryY=1;entryDx=0;entryDy=0;exitX=0;exitY=0.5;exitDx=0;exitDy=0;" parent="1" source="N19XUBrRZEHlFnqMHqqQ-130" target="N19XUBrRZEHlFnqMHqqQ-124" edge="1">
          <mxGeometry width="50" height="50" relative="1" as="geometry">
            <mxPoint x="910" y="719.75" as="sourcePoint" />
            <mxPoint x="960" y="669.75" as="targetPoint" />
          </mxGeometry>
        </mxCell>
        <mxCell id="N19XUBrRZEHlFnqMHqqQ-132" value="" style="endArrow=none;html=1;rounded=0;entryX=0.5;entryY=1;entryDx=0;entryDy=0;exitX=0.5;exitY=0;exitDx=0;exitDy=0;" parent="1" source="N19XUBrRZEHlFnqMHqqQ-136" edge="1">
          <mxGeometry width="50" height="50" relative="1" as="geometry">
            <mxPoint x="800" y="721.5" as="sourcePoint" />
            <mxPoint x="738" y="490" as="targetPoint" />
          </mxGeometry>
        </mxCell>
        <mxCell id="N19XUBrRZEHlFnqMHqqQ-133" value="Deadline" style="ellipse;whiteSpace=wrap;html=1;" parent="1" vertex="1">
          <mxGeometry x="760" y="549" width="116" height="60" as="geometry" />
        </mxCell>
        <mxCell id="N19XUBrRZEHlFnqMHqqQ-134" value="" style="rounded=0;whiteSpace=wrap;html=1;rotation=90;" parent="1" vertex="1">
          <mxGeometry x="792" y="659" width="52" height="31" as="geometry" />
        </mxCell>
        <mxCell id="N19XUBrRZEHlFnqMHqqQ-135" value="" style="endArrow=none;html=1;rounded=0;entryX=0.5;entryY=1;entryDx=0;entryDy=0;exitX=0;exitY=0.5;exitDx=0;exitDy=0;" parent="1" source="N19XUBrRZEHlFnqMHqqQ-134" target="N19XUBrRZEHlFnqMHqqQ-133" edge="1">
          <mxGeometry width="50" height="50" relative="1" as="geometry">
            <mxPoint x="1060" y="719.75" as="sourcePoint" />
            <mxPoint x="1110" y="669.75" as="targetPoint" />
          </mxGeometry>
        </mxCell>
        <mxCell id="N19XUBrRZEHlFnqMHqqQ-199" style="edgeStyle=orthogonalEdgeStyle;rounded=0;orthogonalLoop=1;jettySize=auto;html=1;exitX=0.5;exitY=1;exitDx=0;exitDy=0;entryX=0.5;entryY=1;entryDx=0;entryDy=0;dashed=1;" parent="1" source="N19XUBrRZEHlFnqMHqqQ-136" target="N19XUBrRZEHlFnqMHqqQ-141" edge="1">
          <mxGeometry relative="1" as="geometry">
            <Array as="points">
              <mxPoint x="930" y="870" />
              <mxPoint x="1130" y="870" />
              <mxPoint x="1130" y="619" />
            </Array>
          </mxGeometry>
        </mxCell>
        <mxCell id="N19XUBrRZEHlFnqMHqqQ-136" value="Book ID" style="rhombus;whiteSpace=wrap;html=1;" parent="1" vertex="1">
          <mxGeometry x="890" y="549" width="80" height="70" as="geometry" />
        </mxCell>
        <mxCell id="N19XUBrRZEHlFnqMHqqQ-137" value="" style="endArrow=none;dashed=1;html=1;rounded=0;exitX=0.1;exitY=0.599;exitDx=0;exitDy=0;exitPerimeter=0;entryX=0.89;entryY=0.589;entryDx=0;entryDy=0;entryPerimeter=0;" parent="1" source="N19XUBrRZEHlFnqMHqqQ-136" target="N19XUBrRZEHlFnqMHqqQ-136" edge="1">
          <mxGeometry width="50" height="50" relative="1" as="geometry">
            <mxPoint x="838" y="656.5" as="sourcePoint" />
            <mxPoint x="888" y="606.5" as="targetPoint" />
          </mxGeometry>
        </mxCell>
        <mxCell id="N19XUBrRZEHlFnqMHqqQ-138" value="" style="endArrow=none;html=1;rounded=0;entryX=0.5;entryY=1;entryDx=0;entryDy=0;exitX=0.5;exitY=0;exitDx=0;exitDy=0;" parent="1" source="N19XUBrRZEHlFnqMHqqQ-133" edge="1">
          <mxGeometry width="50" height="50" relative="1" as="geometry">
            <mxPoint x="690" y="721.5" as="sourcePoint" />
            <mxPoint x="738" y="490" as="targetPoint" />
          </mxGeometry>
        </mxCell>
        <mxCell id="N19XUBrRZEHlFnqMHqqQ-229" style="rounded=0;orthogonalLoop=1;jettySize=auto;html=1;exitX=0.5;exitY=0;exitDx=0;exitDy=0;entryX=0.5;entryY=1;entryDx=0;entryDy=0;endArrow=none;endFill=0;" parent="1" target="N19XUBrRZEHlFnqMHqqQ-222" edge="1">
          <mxGeometry relative="1" as="geometry">
            <mxPoint x="820" y="100" as="targetPoint" />
            <mxPoint x="1258" y="430" as="sourcePoint" />
          </mxGeometry>
        </mxCell>
        <mxCell id="N19XUBrRZEHlFnqMHqqQ-140" style="rounded=0;orthogonalLoop=1;jettySize=auto;html=1;exitX=0.5;exitY=0;exitDx=0;exitDy=0;entryX=0.5;entryY=1;entryDx=0;entryDy=0;strokeWidth=1;endArrow=none;endFill=0;" parent="1" source="N19XUBrRZEHlFnqMHqqQ-141" edge="1">
          <mxGeometry relative="1" as="geometry">
            <mxPoint x="1258" y="490" as="targetPoint" />
          </mxGeometry>
        </mxCell>
        <mxCell id="N19XUBrRZEHlFnqMHqqQ-141" value="&lt;u&gt;Book ID&lt;/u&gt;" style="rhombus;whiteSpace=wrap;html=1;" parent="1" vertex="1">
          <mxGeometry x="1100" y="549" width="80" height="70" as="geometry" />
        </mxCell>
        <mxCell id="N19XUBrRZEHlFnqMHqqQ-142" value="Title" style="ellipse;whiteSpace=wrap;html=1;" parent="1" vertex="1">
          <mxGeometry x="1200" y="549" width="116" height="60" as="geometry" />
        </mxCell>
        <mxCell id="N19XUBrRZEHlFnqMHqqQ-143" style="rounded=0;orthogonalLoop=1;jettySize=auto;html=1;exitX=0.5;exitY=0;exitDx=0;exitDy=0;entryX=0.5;entryY=1;entryDx=0;entryDy=0;strokeWidth=1;endArrow=none;endFill=0;" parent="1" source="N19XUBrRZEHlFnqMHqqQ-142" edge="1">
          <mxGeometry relative="1" as="geometry">
            <mxPoint x="1200" y="568.75" as="sourcePoint" />
            <mxPoint x="1258" y="490" as="targetPoint" />
          </mxGeometry>
        </mxCell>
        <mxCell id="N19XUBrRZEHlFnqMHqqQ-147" style="rounded=0;orthogonalLoop=1;jettySize=auto;html=1;entryX=0.5;entryY=1;entryDx=0;entryDy=0;strokeWidth=1;endArrow=none;endFill=0;" parent="1" source="N19XUBrRZEHlFnqMHqqQ-142" edge="1">
          <mxGeometry relative="1" as="geometry">
            <mxPoint x="1150" y="573.75" as="sourcePoint" />
            <mxPoint x="1258" y="490" as="targetPoint" />
          </mxGeometry>
        </mxCell>
        <mxCell id="N19XUBrRZEHlFnqMHqqQ-148" style="rounded=0;orthogonalLoop=1;jettySize=auto;html=1;entryX=0.5;entryY=1;entryDx=0;entryDy=0;strokeWidth=1;endArrow=none;endFill=0;exitX=0.5;exitY=0;exitDx=0;exitDy=0;" parent="1" source="N19XUBrRZEHlFnqMHqqQ-151" edge="1">
          <mxGeometry relative="1" as="geometry">
            <mxPoint x="1380" y="563.75" as="sourcePoint" />
            <mxPoint x="1258" y="490" as="targetPoint" />
          </mxGeometry>
        </mxCell>
        <mxCell id="N19XUBrRZEHlFnqMHqqQ-149" value="" style="rounded=0;whiteSpace=wrap;html=1;rotation=90;" parent="1" vertex="1">
          <mxGeometry x="1232" y="659" width="52" height="31" as="geometry" />
        </mxCell>
        <mxCell id="N19XUBrRZEHlFnqMHqqQ-150" value="" style="endArrow=none;html=1;rounded=0;entryX=0.5;entryY=1;entryDx=0;entryDy=0;exitX=0;exitY=0.5;exitDx=0;exitDy=0;" parent="1" source="N19XUBrRZEHlFnqMHqqQ-149" target="N19XUBrRZEHlFnqMHqqQ-142" edge="1">
          <mxGeometry width="50" height="50" relative="1" as="geometry">
            <mxPoint x="1370" y="718.75" as="sourcePoint" />
            <mxPoint x="1420" y="668.75" as="targetPoint" />
          </mxGeometry>
        </mxCell>
        <mxCell id="N19XUBrRZEHlFnqMHqqQ-151" value="Borrowable" style="ellipse;whiteSpace=wrap;html=1;" parent="1" vertex="1">
          <mxGeometry x="1342" y="549" width="116" height="60" as="geometry" />
        </mxCell>
        <mxCell id="N19XUBrRZEHlFnqMHqqQ-152" value="" style="rounded=0;whiteSpace=wrap;html=1;rotation=90;" parent="1" vertex="1">
          <mxGeometry x="1374" y="659" width="52" height="31" as="geometry" />
        </mxCell>
        <mxCell id="N19XUBrRZEHlFnqMHqqQ-153" value="" style="endArrow=none;html=1;rounded=0;entryX=0.5;entryY=1;entryDx=0;entryDy=0;exitX=0;exitY=0.5;exitDx=0;exitDy=0;" parent="1" source="N19XUBrRZEHlFnqMHqqQ-152" target="N19XUBrRZEHlFnqMHqqQ-151" edge="1">
          <mxGeometry width="50" height="50" relative="1" as="geometry">
            <mxPoint x="1512" y="718.75" as="sourcePoint" />
            <mxPoint x="1562" y="668.75" as="targetPoint" />
          </mxGeometry>
        </mxCell>
        <mxCell id="N19XUBrRZEHlFnqMHqqQ-230" style="rounded=0;orthogonalLoop=1;jettySize=auto;html=1;exitX=0.5;exitY=0;exitDx=0;exitDy=0;entryX=0.5;entryY=1;entryDx=0;entryDy=0;endArrow=none;endFill=0;" parent="1" target="N19XUBrRZEHlFnqMHqqQ-222" edge="1">
          <mxGeometry relative="1" as="geometry">
            <mxPoint x="1688" y="430" as="sourcePoint" />
          </mxGeometry>
        </mxCell>
        <mxCell id="N19XUBrRZEHlFnqMHqqQ-155" style="rounded=0;orthogonalLoop=1;jettySize=auto;html=1;exitX=0.5;exitY=0;exitDx=0;exitDy=0;entryX=0.5;entryY=1;entryDx=0;entryDy=0;strokeWidth=1;endArrow=none;endFill=0;" parent="1" source="N19XUBrRZEHlFnqMHqqQ-170" edge="1">
          <mxGeometry relative="1" as="geometry">
            <mxPoint x="1570.0000000000002" y="586.25" as="sourcePoint" />
            <mxPoint x="1688" y="490" as="targetPoint" />
          </mxGeometry>
        </mxCell>
        <mxCell id="N19XUBrRZEHlFnqMHqqQ-157" value="Publication date" style="ellipse;whiteSpace=wrap;html=1;" parent="1" vertex="1">
          <mxGeometry x="1630" y="549" width="116" height="60" as="geometry" />
        </mxCell>
        <mxCell id="N19XUBrRZEHlFnqMHqqQ-158" style="rounded=0;orthogonalLoop=1;jettySize=auto;html=1;exitX=0.5;exitY=0;exitDx=0;exitDy=0;entryX=0.5;entryY=1;entryDx=0;entryDy=0;strokeWidth=1;endArrow=none;endFill=0;" parent="1" source="N19XUBrRZEHlFnqMHqqQ-157" edge="1">
          <mxGeometry relative="1" as="geometry">
            <mxPoint x="1630" y="591.25" as="sourcePoint" />
            <mxPoint x="1688" y="490" as="targetPoint" />
          </mxGeometry>
        </mxCell>
        <mxCell id="N19XUBrRZEHlFnqMHqqQ-159" value="" style="group" parent="1" vertex="1" connectable="0">
          <mxGeometry x="1510" y="549" width="80" height="70" as="geometry" />
        </mxCell>
        <mxCell id="N19XUBrRZEHlFnqMHqqQ-160" value="Book ID" style="rhombus;whiteSpace=wrap;html=1;" parent="N19XUBrRZEHlFnqMHqqQ-159" vertex="1">
          <mxGeometry width="80" height="70" as="geometry" />
        </mxCell>
        <mxCell id="N19XUBrRZEHlFnqMHqqQ-161" value="" style="endArrow=none;dashed=1;html=1;rounded=0;exitX=0.1;exitY=0.599;exitDx=0;exitDy=0;exitPerimeter=0;entryX=0.89;entryY=0.589;entryDx=0;entryDy=0;entryPerimeter=0;" parent="N19XUBrRZEHlFnqMHqqQ-159" source="N19XUBrRZEHlFnqMHqqQ-160" target="N19XUBrRZEHlFnqMHqqQ-160" edge="1">
          <mxGeometry width="50" height="50" relative="1" as="geometry">
            <mxPoint x="50" y="85" as="sourcePoint" />
            <mxPoint x="100" y="35" as="targetPoint" />
          </mxGeometry>
        </mxCell>
        <mxCell id="N19XUBrRZEHlFnqMHqqQ-162" style="rounded=0;orthogonalLoop=1;jettySize=auto;html=1;entryX=0.5;entryY=1;entryDx=0;entryDy=0;strokeWidth=1;endArrow=none;endFill=0;" parent="1" source="N19XUBrRZEHlFnqMHqqQ-157" edge="1">
          <mxGeometry relative="1" as="geometry">
            <mxPoint x="1580" y="596.25" as="sourcePoint" />
            <mxPoint x="1688" y="490" as="targetPoint" />
          </mxGeometry>
        </mxCell>
        <mxCell id="N19XUBrRZEHlFnqMHqqQ-163" style="rounded=0;orthogonalLoop=1;jettySize=auto;html=1;entryX=0.5;entryY=1;entryDx=0;entryDy=0;strokeWidth=1;endArrow=none;endFill=0;exitX=0.5;exitY=0;exitDx=0;exitDy=0;" parent="1" source="N19XUBrRZEHlFnqMHqqQ-160" edge="1">
          <mxGeometry relative="1" as="geometry">
            <mxPoint x="1810.0033333333336" y="576.2466666666667" as="sourcePoint" />
            <mxPoint x="1688" y="490" as="targetPoint" />
          </mxGeometry>
        </mxCell>
        <mxCell id="N19XUBrRZEHlFnqMHqqQ-164" value="" style="rounded=0;whiteSpace=wrap;html=1;rotation=90;" parent="1" vertex="1">
          <mxGeometry x="1662" y="659" width="52" height="31" as="geometry" />
        </mxCell>
        <mxCell id="N19XUBrRZEHlFnqMHqqQ-165" value="" style="endArrow=none;html=1;rounded=0;entryX=0.5;entryY=1;entryDx=0;entryDy=0;exitX=0;exitY=0.5;exitDx=0;exitDy=0;" parent="1" source="N19XUBrRZEHlFnqMHqqQ-164" target="N19XUBrRZEHlFnqMHqqQ-157" edge="1">
          <mxGeometry width="50" height="50" relative="1" as="geometry">
            <mxPoint x="1800" y="741.25" as="sourcePoint" />
            <mxPoint x="1850" y="691.25" as="targetPoint" />
          </mxGeometry>
        </mxCell>
        <mxCell id="N19XUBrRZEHlFnqMHqqQ-202" style="edgeStyle=orthogonalEdgeStyle;rounded=0;orthogonalLoop=1;jettySize=auto;html=1;exitX=0.5;exitY=1;exitDx=0;exitDy=0;entryX=0.5;entryY=1;entryDx=0;entryDy=0;dashed=1;" parent="1" source="N19XUBrRZEHlFnqMHqqQ-170" target="N19XUBrRZEHlFnqMHqqQ-174" edge="1">
          <mxGeometry relative="1" as="geometry">
            <Array as="points">
              <mxPoint x="1820" y="870" />
              <mxPoint x="1950" y="870" />
            </Array>
          </mxGeometry>
        </mxCell>
        <mxCell id="N19XUBrRZEHlFnqMHqqQ-170" value="Author ID" style="rhombus;whiteSpace=wrap;html=1;" parent="1" vertex="1">
          <mxGeometry x="1780" y="549" width="80" height="70" as="geometry" />
        </mxCell>
        <mxCell id="N19XUBrRZEHlFnqMHqqQ-171" value="" style="endArrow=none;dashed=1;html=1;rounded=0;exitX=0.1;exitY=0.599;exitDx=0;exitDy=0;exitPerimeter=0;entryX=0.89;entryY=0.589;entryDx=0;entryDy=0;entryPerimeter=0;" parent="1" source="N19XUBrRZEHlFnqMHqqQ-170" target="N19XUBrRZEHlFnqMHqqQ-170" edge="1">
          <mxGeometry width="50" height="50" relative="1" as="geometry">
            <mxPoint x="1830" y="681.25" as="sourcePoint" />
            <mxPoint x="1880" y="631.25" as="targetPoint" />
          </mxGeometry>
        </mxCell>
        <mxCell id="N19XUBrRZEHlFnqMHqqQ-174" value="&lt;u&gt;Author ID&lt;/u&gt;" style="rhombus;whiteSpace=wrap;html=1;" parent="1" vertex="1">
          <mxGeometry x="1910" y="549" width="80" height="70" as="geometry" />
        </mxCell>
        <mxCell id="N19XUBrRZEHlFnqMHqqQ-175" value="AName" style="ellipse;whiteSpace=wrap;html=1;" parent="1" vertex="1">
          <mxGeometry x="2060" y="549" width="116" height="60" as="geometry" />
        </mxCell>
        <mxCell id="N19XUBrRZEHlFnqMHqqQ-176" value="ALast_name" style="ellipse;whiteSpace=wrap;html=1;" parent="1" vertex="1">
          <mxGeometry x="2150" y="669" width="116" height="60" as="geometry" />
        </mxCell>
        <mxCell id="N19XUBrRZEHlFnqMHqqQ-177" value="AFirst_name" style="ellipse;whiteSpace=wrap;html=1;" parent="1" vertex="1">
          <mxGeometry x="1970" y="669" width="116" height="60" as="geometry" />
        </mxCell>
        <mxCell id="N19XUBrRZEHlFnqMHqqQ-178" value="" style="endArrow=none;html=1;rounded=0;entryX=0.5;entryY=1;entryDx=0;entryDy=0;exitX=0.5;exitY=0;exitDx=0;exitDy=0;" parent="1" source="N19XUBrRZEHlFnqMHqqQ-177" target="N19XUBrRZEHlFnqMHqqQ-175" edge="1">
          <mxGeometry width="50" height="50" relative="1" as="geometry">
            <mxPoint x="2130" y="930" as="sourcePoint" />
            <mxPoint x="2180" y="880" as="targetPoint" />
          </mxGeometry>
        </mxCell>
        <mxCell id="N19XUBrRZEHlFnqMHqqQ-179" value="" style="endArrow=none;html=1;rounded=0;entryX=0.5;entryY=1;entryDx=0;entryDy=0;exitX=0.5;exitY=0;exitDx=0;exitDy=0;" parent="1" source="N19XUBrRZEHlFnqMHqqQ-176" target="N19XUBrRZEHlFnqMHqqQ-175" edge="1">
          <mxGeometry width="50" height="50" relative="1" as="geometry">
            <mxPoint x="2130" y="930" as="sourcePoint" />
            <mxPoint x="2180" y="880" as="targetPoint" />
          </mxGeometry>
        </mxCell>
        <mxCell id="N19XUBrRZEHlFnqMHqqQ-180" value="ADate of birth" style="ellipse;whiteSpace=wrap;html=1;" parent="1" vertex="1">
          <mxGeometry x="2280" y="549" width="116" height="60" as="geometry" />
        </mxCell>
        <mxCell id="N19XUBrRZEHlFnqMHqqQ-182" value="AAge" style="ellipse;whiteSpace=wrap;html=1;" parent="1" vertex="1">
          <mxGeometry x="2450" y="550" width="116" height="60" as="geometry" />
        </mxCell>
        <mxCell id="N19XUBrRZEHlFnqMHqqQ-231" style="rounded=0;orthogonalLoop=1;jettySize=auto;html=1;exitX=0.5;exitY=0;exitDx=0;exitDy=0;entryX=0.5;entryY=1;entryDx=0;entryDy=0;endArrow=none;endFill=0;" parent="1" target="N19XUBrRZEHlFnqMHqqQ-222" edge="1">
          <mxGeometry relative="1" as="geometry">
            <mxPoint x="2259" y="430" as="sourcePoint" />
          </mxGeometry>
        </mxCell>
        <mxCell id="N19XUBrRZEHlFnqMHqqQ-188" value="" style="endArrow=none;html=1;rounded=0;entryX=0.5;entryY=1;entryDx=0;entryDy=0;exitX=0.5;exitY=0;exitDx=0;exitDy=0;" parent="1" source="N19XUBrRZEHlFnqMHqqQ-174" edge="1">
          <mxGeometry width="50" height="50" relative="1" as="geometry">
            <mxPoint x="2010" y="870" as="sourcePoint" />
            <mxPoint x="2259" y="490" as="targetPoint" />
          </mxGeometry>
        </mxCell>
        <mxCell id="N19XUBrRZEHlFnqMHqqQ-189" value="" style="endArrow=none;html=1;rounded=0;entryX=0.5;entryY=1;entryDx=0;entryDy=0;exitX=0.5;exitY=0;exitDx=0;exitDy=0;" parent="1" source="N19XUBrRZEHlFnqMHqqQ-175" edge="1">
          <mxGeometry width="50" height="50" relative="1" as="geometry">
            <mxPoint x="2010" y="870" as="sourcePoint" />
            <mxPoint x="2259" y="490" as="targetPoint" />
          </mxGeometry>
        </mxCell>
        <mxCell id="N19XUBrRZEHlFnqMHqqQ-190" value="" style="endArrow=none;html=1;rounded=0;entryX=0.5;entryY=1;entryDx=0;entryDy=0;exitX=0.5;exitY=0;exitDx=0;exitDy=0;" parent="1" source="N19XUBrRZEHlFnqMHqqQ-180" edge="1">
          <mxGeometry width="50" height="50" relative="1" as="geometry">
            <mxPoint x="2010" y="870" as="sourcePoint" />
            <mxPoint x="2259" y="490" as="targetPoint" />
          </mxGeometry>
        </mxCell>
        <mxCell id="N19XUBrRZEHlFnqMHqqQ-48" value="" style="group" parent="1" vertex="1" connectable="0">
          <mxGeometry x="-1440" y="549" width="80" height="70" as="geometry" />
        </mxCell>
        <mxCell id="N19XUBrRZEHlFnqMHqqQ-49" value="Librarian ID" style="rhombus;whiteSpace=wrap;html=1;" parent="N19XUBrRZEHlFnqMHqqQ-48" vertex="1">
          <mxGeometry width="80" height="70" as="geometry" />
        </mxCell>
        <mxCell id="N19XUBrRZEHlFnqMHqqQ-50" value="" style="endArrow=none;dashed=1;html=1;rounded=0;exitX=0.1;exitY=0.599;exitDx=0;exitDy=0;exitPerimeter=0;entryX=0.89;entryY=0.589;entryDx=0;entryDy=0;entryPerimeter=0;" parent="N19XUBrRZEHlFnqMHqqQ-48" source="N19XUBrRZEHlFnqMHqqQ-49" target="N19XUBrRZEHlFnqMHqqQ-49" edge="1">
          <mxGeometry width="50" height="50" relative="1" as="geometry">
            <mxPoint x="50" y="85" as="sourcePoint" />
            <mxPoint x="100" y="35" as="targetPoint" />
          </mxGeometry>
        </mxCell>
        <mxCell id="N19XUBrRZEHlFnqMHqqQ-200" style="edgeStyle=orthogonalEdgeStyle;rounded=0;orthogonalLoop=1;jettySize=auto;html=1;exitX=0.5;exitY=1;exitDx=0;exitDy=0;entryX=0.5;entryY=1;entryDx=0;entryDy=0;dashed=1;" parent="1" source="N19XUBrRZEHlFnqMHqqQ-160" target="N19XUBrRZEHlFnqMHqqQ-141" edge="1">
          <mxGeometry relative="1" as="geometry">
            <Array as="points">
              <mxPoint x="1550" y="870" />
              <mxPoint x="1150" y="870" />
              <mxPoint x="1150" y="619" />
            </Array>
          </mxGeometry>
        </mxCell>
        <mxCell id="N19XUBrRZEHlFnqMHqqQ-204" value="" style="endArrow=none;html=1;rounded=0;entryX=0.5;entryY=1;entryDx=0;entryDy=0;exitX=0.5;exitY=0;exitDx=0;exitDy=0;" parent="1" source="N19XUBrRZEHlFnqMHqqQ-182" edge="1">
          <mxGeometry width="50" height="50" relative="1" as="geometry">
            <mxPoint x="2260" y="610" as="sourcePoint" />
            <mxPoint x="2259" y="490" as="targetPoint" />
          </mxGeometry>
        </mxCell>
        <mxCell id="N19XUBrRZEHlFnqMHqqQ-205" style="edgeStyle=orthogonalEdgeStyle;rounded=0;orthogonalLoop=1;jettySize=auto;html=1;exitX=0.5;exitY=1;exitDx=0;exitDy=0;entryX=0.5;entryY=1;entryDx=0;entryDy=0;dashed=1;" parent="1" source="N19XUBrRZEHlFnqMHqqQ-17" target="N19XUBrRZEHlFnqMHqqQ-15" edge="1">
          <mxGeometry relative="1" as="geometry">
            <Array as="points">
              <mxPoint x="-2330" y="870" />
              <mxPoint x="-2190" y="870" />
              <mxPoint x="-2190" y="614" />
            </Array>
          </mxGeometry>
        </mxCell>
        <mxCell id="N19XUBrRZEHlFnqMHqqQ-207" value="" style="endArrow=none;html=1;rounded=0;entryX=0.5;entryY=1;entryDx=0;entryDy=0;exitX=0.5;exitY=0;exitDx=0;exitDy=0;" parent="1" source="N19XUBrRZEHlFnqMHqqQ-31" edge="1">
          <mxGeometry width="50" height="50" relative="1" as="geometry">
            <mxPoint x="-2010" y="700" as="sourcePoint" />
            <mxPoint x="-1842" y="490" as="targetPoint" />
          </mxGeometry>
        </mxCell>
        <mxCell id="N19XUBrRZEHlFnqMHqqQ-208" value="" style="endArrow=none;html=1;rounded=0;entryX=0.5;entryY=1;entryDx=0;entryDy=0;exitX=0.5;exitY=0;exitDx=0;exitDy=0;" parent="1" source="N19XUBrRZEHlFnqMHqqQ-80" edge="1">
          <mxGeometry width="50" height="50" relative="1" as="geometry">
            <mxPoint x="-370" y="710" as="sourcePoint" />
            <mxPoint x="-222" y="490" as="targetPoint" />
          </mxGeometry>
        </mxCell>
        <mxCell id="N19XUBrRZEHlFnqMHqqQ-209" style="edgeStyle=orthogonalEdgeStyle;rounded=0;orthogonalLoop=1;jettySize=auto;html=1;exitX=0.5;exitY=1;exitDx=0;exitDy=0;entryX=0;entryY=0.5;entryDx=0;entryDy=0;endArrow=none;endFill=0;" parent="1" source="N19XUBrRZEHlFnqMHqqQ-78" target="N19XUBrRZEHlFnqMHqqQ-210" edge="1">
          <mxGeometry relative="1" as="geometry">
            <mxPoint x="-434" y="610.5" as="sourcePoint" />
          </mxGeometry>
        </mxCell>
        <mxCell id="N19XUBrRZEHlFnqMHqqQ-210" value="" style="rounded=0;whiteSpace=wrap;html=1;rotation=90;" parent="1" vertex="1">
          <mxGeometry x="-458" y="659" width="52" height="31" as="geometry" />
        </mxCell>
        <mxCell id="N19XUBrRZEHlFnqMHqqQ-211" style="edgeStyle=orthogonalEdgeStyle;rounded=0;orthogonalLoop=1;jettySize=auto;html=1;exitX=0.5;exitY=1;exitDx=0;exitDy=0;endArrow=none;endFill=0;" parent="1" source="N19XUBrRZEHlFnqMHqqQ-80" target="N19XUBrRZEHlFnqMHqqQ-212" edge="1">
          <mxGeometry relative="1" as="geometry">
            <mxPoint x="-284" y="609.5" as="sourcePoint" />
          </mxGeometry>
        </mxCell>
        <mxCell id="N19XUBrRZEHlFnqMHqqQ-212" value="" style="rounded=0;whiteSpace=wrap;html=1;rotation=90;" parent="1" vertex="1">
          <mxGeometry x="-301" y="659" width="52" height="31" as="geometry" />
        </mxCell>
        <mxCell id="N19XUBrRZEHlFnqMHqqQ-213" value="" style="rounded=0;whiteSpace=wrap;html=1;rotation=90;" parent="1" vertex="1">
          <mxGeometry x="2312" y="659" width="52" height="31" as="geometry" />
        </mxCell>
        <mxCell id="N19XUBrRZEHlFnqMHqqQ-214" value="" style="endArrow=none;html=1;rounded=0;entryX=0.5;entryY=1;entryDx=0;entryDy=0;exitX=0;exitY=0.5;exitDx=0;exitDy=0;" parent="1" source="N19XUBrRZEHlFnqMHqqQ-213" target="N19XUBrRZEHlFnqMHqqQ-180" edge="1">
          <mxGeometry width="50" height="50" relative="1" as="geometry">
            <mxPoint x="2448" y="718.75" as="sourcePoint" />
            <mxPoint x="2336" y="609" as="targetPoint" />
          </mxGeometry>
        </mxCell>
        <mxCell id="N19XUBrRZEHlFnqMHqqQ-215" value="" style="rounded=0;whiteSpace=wrap;html=1;rotation=90;" parent="1" vertex="1">
          <mxGeometry x="2482" y="659" width="52" height="31" as="geometry" />
        </mxCell>
        <mxCell id="N19XUBrRZEHlFnqMHqqQ-216" value="" style="endArrow=none;html=1;rounded=0;entryX=0.5;entryY=1;entryDx=0;entryDy=0;exitX=0;exitY=0.5;exitDx=0;exitDy=0;" parent="1" source="N19XUBrRZEHlFnqMHqqQ-215" target="N19XUBrRZEHlFnqMHqqQ-182" edge="1">
          <mxGeometry width="50" height="50" relative="1" as="geometry">
            <mxPoint x="2590" y="718.75" as="sourcePoint" />
            <mxPoint x="2478" y="609" as="targetPoint" />
          </mxGeometry>
        </mxCell>
        <mxCell id="N19XUBrRZEHlFnqMHqqQ-218" value="" style="rounded=0;whiteSpace=wrap;html=1;rotation=90;" parent="1" vertex="1">
          <mxGeometry x="-1868" y="659" width="52" height="31" as="geometry" />
        </mxCell>
        <mxCell id="N19XUBrRZEHlFnqMHqqQ-219" value="" style="endArrow=none;html=1;rounded=0;entryX=0.5;entryY=1;entryDx=0;entryDy=0;exitX=0;exitY=0.5;exitDx=0;exitDy=0;" parent="1" source="N19XUBrRZEHlFnqMHqqQ-218" target="N19XUBrRZEHlFnqMHqqQ-29" edge="1">
          <mxGeometry width="50" height="50" relative="1" as="geometry">
            <mxPoint x="-1705" y="716" as="sourcePoint" />
            <mxPoint x="-1832" y="615" as="targetPoint" />
          </mxGeometry>
        </mxCell>
        <mxCell id="N19XUBrRZEHlFnqMHqqQ-220" value="" style="rounded=0;whiteSpace=wrap;html=1;rotation=90;" parent="1" vertex="1">
          <mxGeometry x="-1716" y="659" width="52" height="31" as="geometry" />
        </mxCell>
        <mxCell id="N19XUBrRZEHlFnqMHqqQ-221" value="" style="endArrow=none;html=1;rounded=0;entryX=0.5;entryY=1;entryDx=0;entryDy=0;exitX=0;exitY=0.5;exitDx=0;exitDy=0;" parent="1" source="N19XUBrRZEHlFnqMHqqQ-220" target="N19XUBrRZEHlFnqMHqqQ-31" edge="1">
          <mxGeometry width="50" height="50" relative="1" as="geometry">
            <mxPoint x="-1555" y="716" as="sourcePoint" />
            <mxPoint x="-1692" y="615" as="targetPoint" />
          </mxGeometry>
        </mxCell>
        <mxCell id="N19XUBrRZEHlFnqMHqqQ-222" value="C0LLER_Library" style="ellipse;shape=doubleEllipse;whiteSpace=wrap;html=1;" parent="1" vertex="1">
          <mxGeometry y="120" width="116" height="60" as="geometry" />
        </mxCell>
        <mxCell id="N19XUBrRZEHlFnqMHqqQ-233" value="Handing over" style="ellipse;shape=doubleEllipse;whiteSpace=wrap;html=1;" parent="1" vertex="1">
          <mxGeometry x="-1230" y="430" width="116" height="60" as="geometry" />
        </mxCell>
        <mxCell id="N19XUBrRZEHlFnqMHqqQ-234" value="Borrower" style="ellipse;shape=doubleEllipse;whiteSpace=wrap;html=1;" parent="1" vertex="1">
          <mxGeometry x="-280" y="430" width="116" height="60" as="geometry" />
        </mxCell>
        <mxCell id="N19XUBrRZEHlFnqMHqqQ-235" value="Business card" style="ellipse;shape=doubleEllipse;whiteSpace=wrap;html=1;" parent="1" vertex="1">
          <mxGeometry x="-2510" y="430" width="116" height="60" as="geometry" />
        </mxCell>
        <mxCell id="N19XUBrRZEHlFnqMHqqQ-236" value="Author" style="ellipse;shape=doubleEllipse;whiteSpace=wrap;html=1;" parent="1" vertex="1">
          <mxGeometry x="2196" y="430" width="116" height="60" as="geometry" />
        </mxCell>
        <mxCell id="N19XUBrRZEHlFnqMHqqQ-237" value="Librarian" style="ellipse;shape=doubleEllipse;whiteSpace=wrap;html=1;" parent="1" vertex="1">
          <mxGeometry x="-1900" y="430" width="116" height="60" as="geometry" />
        </mxCell>
        <mxCell id="N19XUBrRZEHlFnqMHqqQ-238" value="Borrowedby" style="ellipse;shape=doubleEllipse;whiteSpace=wrap;html=1;" parent="1" vertex="1">
          <mxGeometry x="680" y="430" width="116" height="60" as="geometry" />
        </mxCell>
        <mxCell id="N19XUBrRZEHlFnqMHqqQ-239" value="Book" style="ellipse;shape=doubleEllipse;whiteSpace=wrap;html=1;" parent="1" vertex="1">
          <mxGeometry x="1200" y="430" width="116" height="60" as="geometry" />
        </mxCell>
        <mxCell id="N19XUBrRZEHlFnqMHqqQ-240" value="Written by" style="ellipse;shape=doubleEllipse;whiteSpace=wrap;html=1;" parent="1" vertex="1">
          <mxGeometry x="1630" y="430" width="116" height="60" as="geometry" />
        </mxCell>
        <mxCell id="99FTr9x0c5kq965FA5Tk-1" value="" style="rounded=0;whiteSpace=wrap;html=1;rotation=90;" vertex="1" parent="1">
          <mxGeometry x="-2118" y="785" width="52" height="31" as="geometry" />
        </mxCell>
        <mxCell id="99FTr9x0c5kq965FA5Tk-2" value="" style="endArrow=none;html=1;rounded=0;entryX=0.5;entryY=1;entryDx=0;entryDy=0;exitX=0;exitY=0.5;exitDx=0;exitDy=0;" edge="1" parent="1" source="99FTr9x0c5kq965FA5Tk-1">
          <mxGeometry width="50" height="50" relative="1" as="geometry">
            <mxPoint x="-1955" y="842" as="sourcePoint" />
            <mxPoint x="-2092" y="730" as="targetPoint" />
          </mxGeometry>
        </mxCell>
        <mxCell id="99FTr9x0c5kq965FA5Tk-3" value="" style="rounded=0;whiteSpace=wrap;html=1;rotation=90;" vertex="1" parent="1">
          <mxGeometry x="-1980" y="785" width="52" height="31" as="geometry" />
        </mxCell>
        <mxCell id="99FTr9x0c5kq965FA5Tk-4" value="" style="endArrow=none;html=1;rounded=0;entryX=0.5;entryY=1;entryDx=0;entryDy=0;exitX=0;exitY=0.5;exitDx=0;exitDy=0;" edge="1" parent="1" source="99FTr9x0c5kq965FA5Tk-3">
          <mxGeometry width="50" height="50" relative="1" as="geometry">
            <mxPoint x="-1817" y="842" as="sourcePoint" />
            <mxPoint x="-1954" y="730" as="targetPoint" />
          </mxGeometry>
        </mxCell>
        <mxCell id="99FTr9x0c5kq965FA5Tk-5" value="" style="rounded=0;whiteSpace=wrap;html=1;rotation=90;" vertex="1" parent="1">
          <mxGeometry x="-715" y="785" width="52" height="31" as="geometry" />
        </mxCell>
        <mxCell id="99FTr9x0c5kq965FA5Tk-6" value="" style="endArrow=none;html=1;rounded=0;entryX=0.5;entryY=1;entryDx=0;entryDy=0;exitX=0;exitY=0.5;exitDx=0;exitDy=0;" edge="1" parent="1" source="99FTr9x0c5kq965FA5Tk-5">
          <mxGeometry width="50" height="50" relative="1" as="geometry">
            <mxPoint x="-552" y="842" as="sourcePoint" />
            <mxPoint x="-689" y="730" as="targetPoint" />
          </mxGeometry>
        </mxCell>
        <mxCell id="99FTr9x0c5kq965FA5Tk-7" value="" style="rounded=0;whiteSpace=wrap;html=1;rotation=90;" vertex="1" parent="1">
          <mxGeometry x="-578" y="784" width="52" height="31" as="geometry" />
        </mxCell>
        <mxCell id="99FTr9x0c5kq965FA5Tk-8" value="" style="endArrow=none;html=1;rounded=0;entryX=0.5;entryY=1;entryDx=0;entryDy=0;exitX=0;exitY=0.5;exitDx=0;exitDy=0;" edge="1" parent="1" source="99FTr9x0c5kq965FA5Tk-7">
          <mxGeometry width="50" height="50" relative="1" as="geometry">
            <mxPoint x="-415" y="841" as="sourcePoint" />
            <mxPoint x="-552" y="729" as="targetPoint" />
          </mxGeometry>
        </mxCell>
        <mxCell id="99FTr9x0c5kq965FA5Tk-9" value="" style="rounded=0;whiteSpace=wrap;html=1;rotation=90;" vertex="1" parent="1">
          <mxGeometry x="118" y="785" width="52" height="31" as="geometry" />
        </mxCell>
        <mxCell id="99FTr9x0c5kq965FA5Tk-10" value="" style="endArrow=none;html=1;rounded=0;entryX=0.5;entryY=1;entryDx=0;entryDy=0;exitX=0;exitY=0.5;exitDx=0;exitDy=0;" edge="1" parent="1" source="99FTr9x0c5kq965FA5Tk-9">
          <mxGeometry width="50" height="50" relative="1" as="geometry">
            <mxPoint x="281" y="842" as="sourcePoint" />
            <mxPoint x="144" y="730" as="targetPoint" />
          </mxGeometry>
        </mxCell>
        <mxCell id="99FTr9x0c5kq965FA5Tk-11" value="" style="rounded=0;whiteSpace=wrap;html=1;rotation=90;" vertex="1" parent="1">
          <mxGeometry x="253" y="784" width="52" height="31" as="geometry" />
        </mxCell>
        <mxCell id="99FTr9x0c5kq965FA5Tk-12" value="" style="endArrow=none;html=1;rounded=0;entryX=0.5;entryY=1;entryDx=0;entryDy=0;exitX=0;exitY=0.5;exitDx=0;exitDy=0;" edge="1" parent="1" source="99FTr9x0c5kq965FA5Tk-11" target="N19XUBrRZEHlFnqMHqqQ-95">
          <mxGeometry width="50" height="50" relative="1" as="geometry">
            <mxPoint x="413" y="842" as="sourcePoint" />
            <mxPoint x="276" y="730" as="targetPoint" />
          </mxGeometry>
        </mxCell>
        <mxCell id="99FTr9x0c5kq965FA5Tk-13" value="" style="rounded=0;whiteSpace=wrap;html=1;rotation=90;" vertex="1" parent="1">
          <mxGeometry x="388" y="785" width="52" height="31" as="geometry" />
        </mxCell>
        <mxCell id="99FTr9x0c5kq965FA5Tk-14" value="" style="endArrow=none;html=1;rounded=0;entryX=0.5;entryY=1;entryDx=0;entryDy=0;exitX=0;exitY=0.5;exitDx=0;exitDy=0;" edge="1" parent="1" source="99FTr9x0c5kq965FA5Tk-13">
          <mxGeometry width="50" height="50" relative="1" as="geometry">
            <mxPoint x="551" y="842" as="sourcePoint" />
            <mxPoint x="414" y="730" as="targetPoint" />
          </mxGeometry>
        </mxCell>
        <mxCell id="99FTr9x0c5kq965FA5Tk-15" value="" style="rounded=0;whiteSpace=wrap;html=1;rotation=90;" vertex="1" parent="1">
          <mxGeometry x="2002" y="784" width="52" height="31" as="geometry" />
        </mxCell>
        <mxCell id="99FTr9x0c5kq965FA5Tk-16" value="" style="endArrow=none;html=1;rounded=0;entryX=0.5;entryY=1;entryDx=0;entryDy=0;exitX=0;exitY=0.5;exitDx=0;exitDy=0;" edge="1" parent="1" source="99FTr9x0c5kq965FA5Tk-15">
          <mxGeometry width="50" height="50" relative="1" as="geometry">
            <mxPoint x="2165" y="841" as="sourcePoint" />
            <mxPoint x="2028" y="729" as="targetPoint" />
          </mxGeometry>
        </mxCell>
        <mxCell id="99FTr9x0c5kq965FA5Tk-17" value="" style="rounded=0;whiteSpace=wrap;html=1;rotation=90;" vertex="1" parent="1">
          <mxGeometry x="2182" y="785" width="52" height="31" as="geometry" />
        </mxCell>
        <mxCell id="99FTr9x0c5kq965FA5Tk-18" value="" style="endArrow=none;html=1;rounded=0;entryX=0.5;entryY=1;entryDx=0;entryDy=0;exitX=0;exitY=0.5;exitDx=0;exitDy=0;" edge="1" parent="1" source="99FTr9x0c5kq965FA5Tk-17">
          <mxGeometry width="50" height="50" relative="1" as="geometry">
            <mxPoint x="2345" y="842" as="sourcePoint" />
            <mxPoint x="2208" y="730" as="targetPoint" />
          </mxGeometry>
        </mxCell>
      </root>
    </mxGraphModel>
  </diagram>
</mxfile>
